<?xml version="1.0" standalone="no"?>
<!DOCTYPE svg PUBLIC "-//W3C//DTD SVG 20010904//EN"
 "http://www.w3.org/TR/2001/REC-SVG-20010904/DTD/svg10.dtd">
<svg version="1.0" xmlns="http://www.w3.org/2000/svg"
 width="233.000000pt" height="214.000000pt" viewBox="0 0 233.000000 214.000000"
 preserveAspectRatio="xMidYMid meet">

<g transform="translate(0.000000,214.000000) scale(0.100000,-0.100000)"
fill="#000000" stroke="none">
<path d="M0 1070 l0 -1070 1165 0 1165 0 0 1070 0 1070 -1165 0 -1165 0 0
-1070z m1092 798 l100 -93 471 -5 472 -5 0 -500 0 -500 -87 -3 -88 -3 0 -89 0
-90 -90 0 -89 0 -3 -87 -3 -88 -175 -3 -175 -3 -33 -44 c-54 -74 -185 -154
-294 -180 -181 -43 -365 13 -504 151 l-73 74 -168 2 -168 3 -3 603 -2 602 85
0 85 0 0 74 c0 108 -2 106 96 106 l84 0 0 85 0 85 231 0 231 0 100 -92z"/>
<path d="M580 1850 l0 -60 115 0 115 0 108 -100 107 -100 455 0 c250 1 461 0
468 0 9 0 12 -86 12 -395 l0 -396 63 3 62 3 0 455 0 455 -456 5 -455 5 -100
92 -99 93 -197 0 -198 0 0 -60z"/>
<path d="M400 1670 l0 -60 153 0 152 -1 105 -99 105 -100 433 0 432 0 0 -390
0 -390 65 0 65 0 0 455 0 455 -453 0 -453 0 -103 95 -104 95 -199 0 -198 0 0
-60z"/>
<path d="M230 1005 l0 -555 134 0 134 0 -24 58 -23 57 -72 5 -71 5 78 107 c44
59 82 108 85 108 6 0 159 -196 159 -205 0 -3 -27 -5 -60 -5 -54 0 -60 -2 -60
-21 0 -41 71 -157 131 -214 192 -183 490 -180 680 7 36 35 72 84 93 127 30 58
39 68 56 64 23 -6 25 -19 5 -53 -8 -14 -14 -28 -15 -32 0 -5 61 -8 135 -8
l135 0 0 455 0 455 -415 0 -415 0 -100 90 c-54 50 -102 95 -105 100 -4 6 -98
10 -236 10 l-229 0 0 -555z m865 220 c171 -45 320 -183 376 -349 l18 -51 70
-5 70 -5 -75 -100 c-41 -55 -78 -101 -83 -103 -7 -2 -161 191 -161 203 0 3 29
5 65 5 l65 0 -19 50 c-64 169 -210 288 -385 313 -211 30 -429 -83 -511 -265
-30 -68 -38 -75 -64 -59 -25 16 48 149 123 224 66 66 172 127 251 146 63 14
195 12 260 -4z m-69 -220 c5 -28 12 -36 40 -45 29 -10 38 -9 62 9 l29 20 44
-45 43 -44 -18 -30 c-15 -26 -16 -36 -6 -65 8 -23 18 -35 30 -35 43 0 50 -10
50 -70 0 -59 -7 -70 -49 -70 -10 0 -22 -13 -29 -32 -10 -27 -9 -36 8 -63 l19
-31 -44 -44 c-44 -43 -44 -43 -70 -26 -45 29 -105 1 -105 -50 0 -23 -3 -24
-65 -24 l-64 0 -6 33 c-5 27 -14 36 -41 46 -30 11 -37 10 -62 -8 l-29 -20 -43
44 -42 43 18 31 c17 29 17 32 1 66 -14 29 -22 35 -47 35 l-30 0 0 65 0 64 33
6 c27 5 36 14 46 41 11 30 10 37 -9 61 l-21 27 45 44 44 45 29 -20 c24 -17 32
-18 56 -8 34 14 47 31 47 63 0 20 4 22 65 22 l64 0 7 -35z"/>
<path d="M1410 763 c0 -5 15 -25 33 -45 l32 -37 33 44 33 45 -66 0 c-36 0 -65
-3 -65 -7z"/>
<path d="M937 993 c-4 -3 -7 -17 -7 -30 0 -19 -11 -28 -57 -48 -53 -24 -58
-24 -81 -9 -21 14 -26 14 -39 1 -13 -13 -13 -18 0 -42 12 -24 12 -32 0 -54 -7
-14 -17 -38 -22 -52 -7 -18 -19 -28 -41 -32 -25 -6 -31 -11 -28 -29 2 -16 11
-24 31 -28 22 -4 32 -13 41 -40 7 -19 17 -44 23 -54 8 -14 6 -26 -6 -47 -13
-23 -13 -31 -3 -41 10 -10 18 -10 41 3 21 12 33 14 47 6 10 -6 35 -16 54 -23
27 -9 36 -19 40 -41 8 -43 46 -45 57 -3 7 25 17 35 46 45 20 7 44 18 51 25 12
9 20 8 41 -6 24 -15 28 -16 42 -2 13 14 13 18 -1 40 -14 22 -14 28 -2 54 8 16
19 41 25 56 6 16 19 28 33 30 15 2 24 11 26 26 3 18 -2 23 -27 28 -19 4 -33
14 -37 28 -3 11 -13 36 -21 54 -14 29 -14 34 2 58 15 24 15 28 2 42 -14 14
-18 14 -40 -1 -22 -14 -28 -14 -80 6 -48 19 -56 26 -62 55 -6 30 -30 43 -48
25z m91 -169 c42 -24 65 -63 70 -114 14 -152 -168 -213 -262 -87 -26 36 -27
111 -1 151 41 62 134 86 193 50z"/>
<path d="M936 789 c-112 -31 -89 -189 28 -189 14 0 40 13 58 29 76 68 12 187
-86 160z"/>
<path d="M437 677 c-15 -20 -27 -40 -27 -46 0 -7 24 -11 60 -11 33 0 60 4 60
8 0 5 -15 26 -33 47 l-33 38 -27 -36z"/>
</g>
</svg>
